<svg width="781" height="395" viewBox="0 0 781 395" fill="none" xmlns="http://www.w3.org/2000/svg">
<g filter="url(#filter0_d)">
<rect x="40" y="31" width="701" height="315" rx="21" fill="#2F303A"/>
<path d="M235 188.5C235 170.734 249.402 156.331 267.169 156.331C284.935 156.331 299.338 170.734 299.338 188.5C299.338 206.267 284.935 220.669 267.169 220.669C249.402 220.669 235 206.267 235 188.5Z" fill="#1ABCFE"/>
<path d="M170.662 252.838C170.662 235.072 185.064 220.669 202.831 220.669H235V252.838C235 270.605 220.597 285.007 202.831 285.007C185.064 285.007 170.662 270.605 170.662 252.838Z" fill="#0ACF83"/>
<path d="M235 91.9928V156.331H267.169C284.936 156.331 299.338 141.928 299.338 124.162C299.338 106.395 284.936 91.9928 267.169 91.9928H235Z" fill="#FF7262"/>
<path d="M170.662 124.162C170.662 141.928 185.064 156.331 202.831 156.331H235V91.9928H202.831C185.064 91.9928 170.662 106.395 170.662 124.162Z" fill="#F24E1E"/>
<path d="M170.662 188.5C170.662 206.267 185.064 220.669 202.831 220.669H235V156.331H202.831C185.064 156.331 170.662 170.734 170.662 188.5Z" fill="#A259FF"/>
<line x1="374" y1="146.5" x2="374" y2="230.5" stroke="white" stroke-opacity="0.2" stroke-width="2"/>
<path d="M528.001 202.618C536.074 202.618 542.618 196.073 542.618 188C542.618 179.927 536.074 173.383 528.001 173.383C519.928 173.383 513.383 179.927 513.383 188C513.383 196.073 519.928 202.618 528.001 202.618Z" fill="#61DAFB"/>
<path d="M527.999 217.948C571.318 217.948 606.434 204.54 606.434 188C606.434 171.46 571.318 158.052 527.999 158.052C484.681 158.052 449.564 171.46 449.564 188C449.564 204.54 484.681 217.948 527.999 217.948Z" stroke="#61DAFB" stroke-width="7.13043"/>
<path d="M502.063 202.974C523.722 240.489 552.892 264.196 567.216 255.927C581.54 247.657 575.593 210.541 553.934 173.026C532.275 135.511 503.105 111.804 488.781 120.074C474.457 128.343 480.404 165.459 502.063 202.974Z" stroke="#61DAFB" stroke-width="7.13043"/>
<path d="M502.063 173.026C480.404 210.541 474.457 247.656 488.781 255.926C503.105 264.196 532.275 240.488 553.934 202.974C575.593 165.459 581.54 128.343 567.216 120.073C552.892 111.803 523.722 135.511 502.063 173.026Z" stroke="#61DAFB" stroke-width="7.13043"/>
</g>
<defs>
<filter id="filter0_d" x="0" y="0" width="781" height="395" filterUnits="userSpaceOnUse" color-interpolation-filters="sRGB">
<feFlood flood-opacity="0" result="BackgroundImageFix"/>
<feColorMatrix in="SourceAlpha" type="matrix" values="0 0 0 0 0 0 0 0 0 0 0 0 0 0 0 0 0 0 127 0"/>
<feOffset dy="9"/>
<feGaussianBlur stdDeviation="20"/>
<feColorMatrix type="matrix" values="0 0 0 0 0 0 0 0 0 0 0 0 0 0 0 0 0 0 0.16 0"/>
<feBlend mode="normal" in2="BackgroundImageFix" result="effect1_dropShadow"/>
<feBlend mode="normal" in="SourceGraphic" in2="effect1_dropShadow" result="shape"/>
</filter>
</defs>
</svg>
